HIERARCHY
ROOT Hips
{
  OFFSET 45.6498 86.6218 9.3172
  CHANNELS 6 Xposition Yposition Zposition Zrotation Xrotation Yrotation
  JOINT spine
  {
    OFFSET 0 6.84637 0.3937
    CHANNELS 3 Zrotation Xrotation Yrotation
    JOINT spine1
    {
      OFFSET 0 9.49621 0
      CHANNELS 3 Zrotation Xrotation Yrotation
      JOINT spine2
      {
        OFFSET 0 9.09909 0
        CHANNELS 3 Zrotation Xrotation Yrotation
        JOINT Neck
        {
          OFFSET 0 23.3612 1.11378
          CHANNELS 3 Zrotation Xrotation Yrotation
          JOINT Head
          {
            OFFSET 0 7.05802 0
            CHANNELS 3 Zrotation Xrotation Yrotation
            End Site
            {
              OFFSET 0 17.0844 -5.63419
            }
          }
        }
        JOINT RightShoulder
        {
          OFFSET -3.83136 9.82631 -0.533491
          CHANNELS 3 Zrotation Xrotation Yrotation
          JOINT RightArm
          {
            OFFSET 0 12.8881 0
            CHANNELS 3 Zrotation Xrotation Yrotation
            JOINT RightArmRoll
            {
              OFFSET 0 6.50617 0
              CHANNELS 3 Zrotation Xrotation Yrotation
              JOINT RightForeArm
              {
                OFFSET 0 18.9501 0
                CHANNELS 3 Zrotation Xrotation Yrotation
                JOINT RightForeArmRoll
                {
                  OFFSET 0 7.30092 0
                  CHANNELS 3 Zrotation Xrotation Yrotation
                  JOINT RightHand
                  {
                    OFFSET 0 14.6514 0
                    CHANNELS 3 Zrotation Xrotation Yrotation
                    End Site
                    {
                      OFFSET 0 0 0
                    }
                  }
                }
              }
            }
          }
        }
        JOINT LeftShoulder
        {
          OFFSET 3.83136 9.82631 -0.533491
          CHANNELS 3 Zrotation Xrotation Yrotation
          JOINT LeftArm
          {
            OFFSET 0 12.8881 0
            CHANNELS 3 Zrotation Xrotation Yrotation
            JOINT LeftArmRoll
            {
              OFFSET 0 6.50617 0
              CHANNELS 3 Zrotation Xrotation Yrotation
              JOINT LeftForeArm
              {
                OFFSET 0 18.9501 0
                CHANNELS 3 Zrotation Xrotation Yrotation
                JOINT LeftForeArmRoll
                {
                  OFFSET 0 7.30093 0
                  CHANNELS 3 Zrotation Xrotation Yrotation
                  JOINT LeftHand
                  {
                    OFFSET 0 14.6514 0
                    CHANNELS 3 Zrotation Xrotation Yrotation
                    End Site
                    {
                      OFFSET 0 0 0
                    }
                  }
                }
              }
            }
          }
        }
      }
    }
  }
  JOINT RightUpLeg
  {
    OFFSET -6.06837 -1.11278 -0.933477
    CHANNELS 3 Zrotation Xrotation Yrotation
    JOINT RightUpLegRoll
    {
      OFFSET 0 17.1796 0
      CHANNELS 3 Zrotation Xrotation Yrotation
      JOINT RightLeg
      {
        OFFSET 0 -21.2743 0
        CHANNELS 3 Zrotation Xrotation Yrotation
        JOINT RightLegRoll
        {
          OFFSET 0 21.3439 0
          CHANNELS 3 Zrotation Xrotation Yrotation
          JOINT RightFoot
          {
            OFFSET 0 17.7652 0
            CHANNELS 3 Zrotation Xrotation Yrotation
            JOINT RightToeBase
            {
              OFFSET 0 14.8508 0
              CHANNELS 3 Zrotation Xrotation Yrotation
              End Site
              {
                OFFSET 0.0062947 7.19213 -0.829005
              }
            }
          }
        }
      }
    }
  }
  JOINT LeftUpLeg
  {
    OFFSET 6.06837 -1.11278 -0.933477
    CHANNELS 3 Zrotation Xrotation Yrotation
    JOINT LeftUpLegRoll
    {
      OFFSET 0 17.1797 0
      CHANNELS 3 Zrotation Xrotation Yrotation
      JOINT LeftLeg
      {
        OFFSET 0 21.2742 0
        CHANNELS 3 Zrotation Xrotation Yrotation
        JOINT LeftLegRoll
        {
          OFFSET 0 21.5412 0
          CHANNELS 3 Zrotation Xrotation Yrotation
          JOINT LeftFoot
          {
            OFFSET 0 17.5679 0
            CHANNELS 3 Zrotation Xrotation Yrotation
            JOINT LeftToeBase
            {
              OFFSET 0 14.8508 0
              CHANNELS 3 Zrotation Xrotation Yrotation
              End Site
              {
                OFFSET -0.0282102 7.19213 -0.829005
              }
            }
          }
        }
      }
    }
  }
}
MOTION
Frames: 6
Frame Time: 0.00208333
51.0324 86.378 9.5653 -0.437256 1.29895 49.5857 3.41768 -2.01599 2.17857 6.88069 0.0842741 4.02996 6.83493 1.72084 3.9162 -32.0299 -7.76675 3.41728 21.4691 15.0477 -1.50047 32.8293 2.22354 6.06284 -161.323 68.4297 -87.4057 7.57773e-006 7.84003e-006 -6.90491e-006 15.713 19.2899 -4.40217 -7.31883e-006 5.94492e-006 -3.00002 8.02897 -4.95084 0.697371 -83.6443 -12.0637 7.03442 -76.1233 11.6823 38.6023 7.77355e-006 -4.24738e-008 3.92739e-006 -20.0029 65.7041 8.14964 -5.49876e-007 -4.52819e-006 3.00001 -8.03083 -4.95129 -0.697224 176.052 9.37753 1.53999 180 7.0155e-015 178.935 175.008 24.8412 -179.369 -1.02381e-006 2.82354e-007 0.381664 -37.7258 78.8191 38.4625 8.13648 25.2327 -3.48773 174.651 12.977 4.19202 4.54188e-006 -4.6773e-006 -1.67901 -3.5603 -23.0517 -0.65297 -4.24662e-006 -8.75679e-006 -1.08293 33.8878 74.4942 -28.9137 -8.13651 25.2327 3.48774 
51.0267 86.3879 9.58721 -0.487193 1.28084 49.6871 3.41005 -2.01433 2.17485 6.86532 0.0871543 4.02317 6.81964 1.72376 3.90966 -32.0404 -7.74919 3.38971 21.4873 14.9934 -1.52464 32.9642 2.194 6.00453 -161.653 68.3396 -87.345 7.57773e-006 7.84003e-006 -6.90491e-006 15.8714 19.4493 -4.43974 -7.31883e-006 5.94492e-006 -3.00002 8.02897 -4.95084 0.697371 -83.6436 -12.0603 7.03318 -76.1371 11.6497 38.1315 7.77355e-006 -4.24737e-008 3.92739e-006 -20.2462 65.4357 8.26313 -5.49876e-007 -4.52819e-006 3.00001 -8.03083 -4.95129 -0.697224 176.125 9.34254 1.50857 180 7.01548e-015 178.93 174.986 24.7622 -179.362 -1.02381e-006 2.82354e-007 0.382509 -37.7386 78.8031 38.4322 8.13648 25.2327 -3.48773 174.711 13.0301 4.18035 4.54188e-006 -4.6773e-006 -1.67319 -3.52635 -23.079 -0.640423 -4.24662e-006 -8.75679e-006 -1.0863 33.7878 74.4749 -28.8598 -8.13651 25.2327 3.48774 
51.0046 86.461 9.61278 -0.535615 1.26438 49.7852 3.40227 -2.01255 2.17133 6.84964 0.0902666 4.01678 6.80403 1.72691 3.90353 -32.0523 -7.73115 3.36306 21.5086 14.9409 -1.54866 33.0914 2.1675 5.95088 -161.988 68.2499 -87.2718 7.57773e-006 7.84003e-006 -6.90491e-006 16.0263 19.6066 -4.47679 -7.31883e-006 5.94492e-006 -3.00002 8.02897 -4.95084 0.697371 -83.6441 -12.0573 7.03211 -76.1507 11.61 37.692 7.77355e-006 -4.24738e-008 3.92739e-006 -20.4798 65.1809 8.37081 -5.49876e-007 -4.52819e-006 3.00001 -8.03083 -4.95129 -0.697224 176.195 9.31078 1.47968 180 7.01547e-015 178.925 174.964 24.6884 -179.354 -1.02381e-006 2.82354e-007 0.383328 -37.7573 78.7887 38.4078 8.13648 25.2327 -3.48773 174.769 13.0837 4.16922 4.54188e-006 -4.6773e-006 -1.6676 -3.49382 -23.1072 -0.62841 -4.24662e-006 -8.75679e-006 -1.08949 33.6911 74.4562 -28.8079 -8.13651 25.2327 3.48774 
50.9702 86.4376 9.6084 -0.582137 1.2498 49.8797 3.39427 -2.01063 2.16805 6.83353 0.0936855 4.01089 6.78799 1.73036 3.89791 -32.0661 -7.71263 3.33724 21.5335 14.8901 -1.57274 33.2096 2.14461 5.9027 -162.328 68.1612 -87.1827 7.57773e-006 7.84003e-006 -6.90491e-006 16.1769 19.762 -4.51325 -7.31883e-006 5.94492e-006 -3.00002 8.02897 -4.95084 0.697371 -83.646 -12.0549 7.03119 -76.1634 11.5614 37.2926 7.77355e-006 -4.24737e-008 3.92739e-006 -20.6996 64.945 8.47105 -5.49876e-007 -4.52819e-006 3.00001 -8.03083 -4.95129 -0.697224 176.261 9.28245 1.45375 180 7.01546e-015 178.92 174.941 24.6207 -179.346 -1.02381e-006 2.82354e-007 0.384117 -37.7833 78.7762 38.3906 8.13648 25.2327 -3.48773 174.825 13.1379 4.15874 4.54188e-006 -4.6773e-006 -1.66227 -3.46291 -23.1367 -0.617011 -4.24662e-006 -8.75679e-006 -1.09249 33.5981 74.4384 -28.7584 -8.13651 25.2327 3.48774 
50.9491 86.4688 9.63522 -0.626375 1.23732 49.9705 3.386 -2.00853 2.16507 6.81688 0.0974855 4.00561 6.77141 1.7342 3.8929 -32.0826 -7.69363 3.31215 21.5628 14.8413 -1.59713 33.3177 2.12591 5.8608 -162.674 68.0738 -87.0743 7.57773e-006 7.84003e-006 -6.90491e-006 16.3223 19.9155 -4.54907 -7.31883e-006 5.94492e-006 -3.00002 8.02897 -4.95084 0.697371 -83.6497 -12.053 7.03043 -76.1747 11.5027 36.942 7.77355e-006 -4.24738e-008 3.92739e-006 -20.9019 64.733 8.56228 -5.49876e-007 -4.52819e-006 3.00001 -8.03083 -4.95129 -0.697224 176.323 9.25779 1.43124 180 7.01545e-015 178.916 174.917 24.56 -179.338 -1.02381e-006 2.82354e-007 0.384874 -37.8179 78.766 38.3821 8.13648 25.2327 -3.48773 174.877 13.1924 4.14907 4.54188e-006 -4.6773e-006 -1.65725 -3.43378 -23.1675 -0.606308 -4.24662e-006 -8.75679e-006 -1.09528 33.5091 74.4215 -28.7113 -8.13651 25.2327 3.48774 
50.9442 86.4754 9.66729 -0.667948 1.22717 50.0576 3.37741 -2.0062 2.16243 6.79959 0.101741 4.00104 6.75418 1.73849 3.88862 -32.1023 -7.67415 3.28772 21.5971 14.7947 -1.62206 33.4144 2.11197 5.82599 -163.029 67.9881 -86.9432 7.57773e-006 7.84003e-006 -6.90491e-006 16.4614 20.067 -4.58416 -7.31883e-006 5.94492e-006 -3.00002 8.02897 -4.95084 0.697371 -83.6556 -12.0516 7.02983 -76.1838 11.4324 36.649 7.77355e-006 -4.24737e-008 3.92739e-006 -21.0829 64.5501 8.64303 -5.49876e-007 -4.52819e-006 3.00001 -8.03083 -4.95129 -0.697224 176.38 9.237 1.41257 180 7.01544e-015 178.912 174.892 24.5072 -179.33 -1.02381e-006 2.82354e-007 0.385597 -37.8625 78.7584 38.3836 8.13648 25.2327 -3.48773 174.927 13.2473 4.14033 4.54188e-006 -4.6773e-006 -1.65258 -3.40662 -23.1998 -0.596381 -4.24662e-006 -8.75679e-006 -1.09784 33.4243 74.4056 -28.667 -8.13651 25.2327 3.48774 
